<?xml version="1.0" encoding="UTF-8"?>
<svg width="24" height="24" viewBox="0 0 24 24" fill="none" xmlns="http://www.w3.org/2000/svg">
    <path d="M12.0002 2C17.5002 2 22.0002 6.5 22.0002 12C22.0002 17.5 17.5002 22 12.0002 22C6.50019 22 2.00019 17.5 2.00019 12C2.00019 6.5 6.50019 2 12.0002 2ZM12.0002 3.5C7.30019 3.5 3.50019 7.3 3.50019 12C3.50019 16.7 7.30019 20.5 12.0002 20.5C16.7002 20.5 20.5002 16.7 20.5002 12C20.5002 7.3 16.7002 3.5 12.0002 3.5ZM12.0002 7C14.7002 7 17.0002 9.3 17.0002 12C17.0002 14.7 14.7002 17 12.0002 17C9.30019 17 7.00019 14.7 7.00019 12C7.00019 9.3 9.30019 7 12.0002 7ZM12.0002 8.5C10.1002 8.5 8.50019 10.1 8.50019 12C8.50019 13.9 10.1002 15.5 12.0002 15.5C13.9002 15.5 15.5002 13.9 15.5002 12C15.5002 10.1 13.9002 8.5 12.0002 8.5Z" fill="currentColor"/>
</svg> 